<!DOCTYPE svg PUBLIC "-//W3C//DTD SVG 1.1//EN" "http://www.w3.org/Graphics/SVG/1.1/DTD/svg11.dtd">
<!-- Uploaded to: SVG Repo, www.svgrepo.com, Transformed by: SVG Repo Mixer Tools -->
<svg fill="#ffffff" height="800px" width="800px" version="1.1" id="Capa_1" xmlns="http://www.w3.org/2000/svg" xmlns:xlink="http://www.w3.org/1999/xlink" viewBox="0 0 463 463" xml:space="preserve" stroke="#ffffff">
<g id="SVGRepo_bgCarrier" stroke-width="0"/>
<g id="SVGRepo_tracerCarrier" stroke-linecap="round" stroke-linejoin="round"/>
<g id="SVGRepo_iconCarrier"> <g> <path d="M412.145,119.226h-43.247c-8.646,0-16.394-5.152-19.738-13.126l-9.375-22.356c-5.688-13.562-18.865-22.325-33.571-22.325 H156.786c-14.706,0-27.883,8.763-33.571,22.325L113.84,106.1c-3.344,7.974-11.091,13.126-19.738,13.126H50.855 C22.813,119.226,0,142.039,0,170.081v180.645c0,28.042,22.813,50.855,50.855,50.855h361.29c28.042,0,50.855-22.813,50.855-50.855 V170.081C463,142.039,440.186,119.226,412.145,119.226z M448,350.725c0,19.771-16.084,35.855-35.855,35.855H50.855 C31.084,386.58,15,370.496,15,350.725V170.081c0-19.771,16.084-35.855,35.855-35.855h43.247c14.707,0,27.884-8.763,33.571-22.325 l9.375-22.355c3.344-7.974,11.092-13.126,19.738-13.126h149.428c8.646,0,16.394,5.152,19.738,13.126l9.375,22.355 c5.688,13.562,18.865,22.325,33.571,22.325h43.247c19.771,0,35.855,16.084,35.855,35.855V350.725z"/> <path d="M102.837,183.14c-1.344-7.726-8.011-13.334-15.853-13.334c-7.843,0-14.51,5.608-15.853,13.334L43.466,342.215 c-0.709,4.081,2.023,7.964,6.104,8.674c4.082,0.708,7.964-2.023,8.674-6.104l6.464-37.17c0.198,0.016,0.396,0.03,0.598,0.03h43.354 c0.202,0,0.4-0.014,0.598-0.03l6.464,37.17c0.634,3.646,3.802,6.216,7.38,6.216c0.426,0,0.859-0.037,1.294-0.112 c4.081-0.71,6.813-4.593,6.104-8.674L102.837,183.14z M67.312,292.645L85.909,185.71c0.091-0.523,0.543-0.903,1.075-0.903 s0.984,0.38,1.075,0.904l18.597,106.934H67.312z"/> <path d="M217.048,169.806c-4.142,0-7.5,3.358-7.5,7.5v133.677c0,13.794-11.222,25.016-25.016,25.016s-25.016-11.222-25.016-25.016 V177.306c0-4.142-3.358-7.5-7.5-7.5s-7.5,3.358-7.5,7.5v133.677c0,22.065,17.951,40.016,40.016,40.016s40.016-17.951,40.016-40.016 V177.306C224.548,173.164,221.19,169.806,217.048,169.806z"/> <path d="M318.209,169.806h-72.258c-4.142,0-7.5,3.358-7.5,7.5s3.358,7.5,7.5,7.5h28.629V343.5c0,4.142,3.358,7.5,7.5,7.5 s7.5-3.358,7.5-7.5V184.806h28.629c4.142,0,7.5-3.358,7.5-7.5S322.352,169.806,318.209,169.806z"/> <path d="M372.403,169.806c-22.065,0-40.016,17.951-40.016,40.016v101.161c0,22.065,17.951,40.016,40.016,40.016 s40.016-17.951,40.016-40.016V209.823C412.419,187.758,394.468,169.806,372.403,169.806z M397.419,310.984 c0,13.794-11.222,25.016-25.016,25.016s-25.016-11.222-25.016-25.016V209.823c0-13.794,11.222-25.016,25.016-25.016 s25.016,11.222,25.016,25.016V310.984z"/> </g> </g>
</svg>